<?xml version="1.0" encoding="UTF-8"?>
<svg width="100px" height="38px" viewBox="0 0 100 38" version="1.1" xmlns="http://www.w3.org/2000/svg" xmlns:xlink="http://www.w3.org/1999/xlink">
    <!-- Generator: Sketch 49.2 (51160) - http://www.bohemiancoding.com/sketch -->
    <title>:: icon-Five star+Trustpilot</title>
    <desc>Created with Sketch.</desc>
    <defs></defs>
    <g id="Page-1" stroke="none" stroke-width="1" fill="none" fill-rule="evenodd" opacity="0.800000012">
        <g id="Assets" transform="translate(-188.000000, -679.000000)">
            <g id="::-icon-Five-star+Trustpilot" transform="translate(188.000000, 679.000000)">
                <g id="Group" fill="#BAC2CE">
                    <path d="M18,16.9959142 C18,18.102566 17.1498116,19 16.1014199,19 L1.89858012,19 C0.850188351,19 0,18.102566 0,16.9959142 L0,2.00408583 C0,0.89743404 0.850188351,0 1.89858012,0 L16.1014199,0 C17.1498116,0 18,0.89743404 18,2.00408583 L18,16.9959142 Z" id="Fill-1"></path>
                    <path d="M38,16.9959142 C38,18.102566 37.1498116,19 36.1014199,19 L21.8985801,19 C20.8501884,19 20,18.102566 20,16.9959142 L20,2.00408583 C20,0.89743404 20.8501884,0 21.8985801,0 L36.1014199,0 C37.1498116,0 38,0.89743404 38,2.00408583 L38,16.9959142 Z" id="Fill-5"></path>
                    <path d="M59,16.9959142 C59,18.102566 58.1498116,19 57.1014199,19 L42.8985801,19 C41.8501884,19 41,18.102566 41,16.9959142 L41,2.00408583 C41,0.89743404 41.8501884,0 42.8985801,0 L57.1014199,0 C58.1498116,0 59,0.89743404 59,2.00408583 L59,16.9959142 Z" id="Fill-9"></path>
                    <path d="M79,16.9959142 C79,18.102566 78.1498116,19 77.1014199,19 L62.8985801,19 C61.8501884,19 61,18.102566 61,16.9959142 L61,2.00408583 C61,0.89743404 61.8501884,0 62.8985801,0 L77.1014199,0 C78.1498116,0 79,0.89743404 79,2.00408583 L79,16.9959142 Z" id="Fill-13"></path>
                    <path d="M100,16.9959142 C100,18.102566 99.1498116,19 98.1014199,19 L83.8985801,19 C82.8501884,19 82,18.102566 82,16.9959142 L82,2.00408583 C82,0.89743404 82.8501884,0 83.8985801,0 L98.1014199,0 C99.1498116,0 100,0.89743404 100,2.00408583 L100,16.9959142 Z" id="Fill-17"></path>
                    <g id="Page-1" transform="translate(2.000000, 27.000000)">
                        <path d="M22,0.626875419 C22,0.732362899 21.994645,0.827074776 21.9837503,0.905150635 C21.9711938,0.985495042 21.9540209,1.0482582 21.9290924,1.09646485 C21.904164,1.14372626 21.8736959,1.17888876 21.8391654,1.20195233 C21.802419,1.22444876 21.7627181,1.23541341 21.7182162,1.23541341 L18.7103684,1.23541341 L18.7103684,10.7281523 C18.7103684,10.7744685 18.6987351,10.8130338 18.6769458,10.8472511 C18.6549718,10.8809012 18.6160096,10.9081238 18.5613517,10.9272174 C18.5057705,10.9466891 18.4333857,10.9646485 18.34272,10.979205 C18.2515003,10.9913039 18.1371988,11 18,11 C17.8679716,11 17.7545933,10.9911149 17.6609731,10.979205 C17.5664297,10.9646485 17.4931216,10.9466891 17.4369864,10.9272174 C17.3823285,10.9081238 17.3446588,10.8809012 17.3221309,10.8472511 C17.300157,10.8130338 17.2892623,10.7744685 17.2892623,10.7281523 L17.2892623,1.23522436 L14.2799372,1.23522436 C14.2359893,1.23522436 14.1970271,1.22425971 14.1602807,1.20176328 C14.1250115,1.17851066 14.0962053,1.14334817 14.0742314,1.0962758 C14.0517034,1.0482582 14.0337919,0.985305996 14.0195734,0.904961589 C14.0062783,0.82688573 14,0.732173853 14,0.626686373 C14,0.518930345 14.0062783,0.424407514 14.0195734,0.343117879 C14.0337919,0.260315878 14.0517034,0.194338942 14.0742314,0.14386375 C14.0962053,0.0941447402 14.1250115,0.0565246533 14.1602807,0.0334610824 C14.1968424,0.0120989224 14.2359893,0 14.2799372,0 L21.7182162,0 C21.7627181,0 21.802419,0.0120989224 21.8391654,0.033650128 C21.8736959,0.0567136989 21.904164,0.0945228316 21.9290924,0.144052795 C21.9540209,0.194338942 21.9711938,0.260504924 21.9837503,0.343306924 C21.994645,0.424596559 22,0.518930345 22,0.626875419" id="Fill-1"></path>
                        <path d="M29.8987132,3.03763792 C29.8987132,2.60906404 29.8066437,2.24609012 29.622686,1.95022858 C29.4387282,1.65512323 29.1304404,1.44149795 28.698185,1.31199945 C28.5624369,1.27229918 28.4100148,1.24450899 28.2398312,1.22654934 C28.0689227,1.20972399 27.8465422,1.20178393 27.570515,1.20178393 L26.3939104,1.20178393 L26.3939104,4.89107345 L27.7570101,4.89107345 C28.1249256,4.89107345 28.4413691,4.84362218 28.7105093,4.75098821 C28.9780183,4.65721995 29.2011237,4.52791049 29.3789193,4.3613584 C29.5574399,4.19442821 29.6888383,3.99932974 29.7729332,3.77379438 C29.8566657,3.54844808 29.8987132,3.30249545 29.8987132,3.03763792 M32,10.7281477 C32,10.7744646 31.992388,10.8130306 31.9739016,10.8472485 C31.9586775,10.8808992 31.9240608,10.9098237 31.869689,10.930241 C31.8151361,10.9542502 31.7402843,10.9701303 31.6427776,10.9826075 C31.5454522,10.9935723 31.4151412,11 31.2532947,11 C31.1122906,11 30.997385,10.9935723 30.9083966,10.9826075 C30.8195894,10.9703193 30.7479999,10.9521706 30.6938094,10.9270271 C30.6394376,10.9026398 30.5972089,10.8672877 30.5680294,10.8209707 C30.5374,10.7767332 30.5120265,10.7209638 30.4899153,10.6512048 L29.525723,8.0710652 C29.4122673,7.77841749 29.2933744,7.5078885 29.1730316,7.2632592 C29.0510577,7.01862991 28.9062476,6.80746228 28.7384201,6.62862201 C28.5705927,6.45148317 28.3735857,6.31253222 28.1466743,6.21498299 C27.9197628,6.11592136 27.6469979,6.06639054 27.328017,6.06639054 L26.3942728,6.06639054 L26.3942728,10.7277696 C26.3942728,10.7740866 26.3826735,10.8126525 26.3574813,10.8468704 C26.333014,10.8805211 26.2962225,10.9077441 26.2440256,10.9268381 C26.1918287,10.9463101 26.1229578,10.9642698 26.0341506,10.9788265 C25.9444373,10.9909257 25.8326127,10.9996219 25.6966833,10.9996219 C25.5618414,10.9996219 25.4500168,10.9907366 25.3610284,10.9788265 C25.271315,10.9642698 25.1993631,10.9463101 25.1448101,10.9268381 C25.0911633,10.9077441 25.054553,10.8805211 25.0313544,10.8468704 C25.0106931,10.8126525 25,10.7740866 25,10.7277696 L25,0.593235486 C25,0.372615406 25.054553,0.219107689 25.1663775,0.131199945 C25.276571,0.0442374454 25.3938327,0 25.5187065,0 L27.7486731,0 C28.013826,0 28.2345753,0.00812910322 28.410196,0.021551576 C28.5856355,0.0345959509 28.7442198,0.0519884508 28.8846801,0.0690028529 C29.2901121,0.141597635 29.6480594,0.257484618 29.9594283,0.415151411 C30.2700722,0.572629155 30.5314191,0.772642904 30.7429252,1.01632695 C30.9529814,1.25793146 31.1117469,1.53696766 31.2166844,1.84946551 C31.3223468,2.16120716 31.3747249,2.50773382 31.3747249,2.88507545 C31.3747249,3.25315368 31.327059,3.58077544 31.2320897,3.87172172 C31.1380266,4.16134465 31.0022784,4.41788403 30.8235766,4.64096174 C30.6450561,4.86403946 30.4321,5.0566803 30.182715,5.22077476 C29.9344173,5.38524731 29.655309,5.52268587 29.3464775,5.63554807 C29.5213733,5.71400337 29.6768765,5.81401024 29.8178805,5.93462345 C29.9581596,6.0569381 30.0886518,6.20250576 30.2111695,6.37057024 C30.3322373,6.54090331 30.4471429,6.73543464 30.5569738,6.95681092 C30.6635424,7.17421717 30.7722859,7.42376173 30.8804857,7.70109648 L31.821117,10.111092 C31.8970562,10.3143196 31.9452658,10.4576187 31.9675582,10.5381535 C31.9876757,10.6203898 32,10.6833431 32,10.7281477" id="Fill-3"></path>
                        <path d="M42,6.85522059 C42,7.51068553 41.9072345,8.09630739 41.717978,8.61019341 C41.5296528,9.12559364 41.2601113,9.55960493 40.9087946,9.91563425 C40.558968,10.2710957 40.1320232,10.5400578 39.6285189,10.7234669 C39.126691,10.9085794 38.553892,11 37.9142199,11 C37.3278227,11 36.7954455,10.9136899 36.3131767,10.7412589 C35.8327706,10.5692064 35.4190514,10.3148186 35.0738818,9.97771698 C34.7294572,9.64137243 34.4647589,9.21947484 34.2788553,8.71580976 C34.0929518,8.20930553 34,7.62557643 34,6.96519031 L34,0.267447863 C34,0.222589304 34.0102452,0.18473398 34.0322258,0.149717806 C34.0542063,0.116783674 34.0927655,0.0906635006 34.146413,0.0713572854 C34.2015507,0.0520510703 34.2723357,0.0346376213 34.3608168,0.0215775346 C34.4476215,0.00700323491 34.5625538,0 34.7052413,0 C34.8367523,0 34.9487042,0.00700323491 35.041656,0.0215775346 C35.1338627,0.0346376213 35.2070692,0.0520510703 35.2590402,0.0713572854 C35.3102661,0.0906635006 35.3480802,0.116783674 35.370247,0.149717806 C35.3922276,0.18473398 35.4032179,0.222589304 35.4032179,0.267447863 L35.4032179,6.78802739 C35.4032179,7.28923188 35.4630126,7.72532521 35.5829744,8.09706449 C35.7042401,8.47012871 35.8776632,8.77978526 36.1043612,9.02698052 C36.3305004,9.27474362 36.6046988,9.46193819 36.9254663,9.58629293 C37.2445572,9.71083695 37.604629,9.77424461 38.0049363,9.77424461 C38.4145575,9.77424461 38.7800312,9.71405465 39.0991222,9.58951063 C39.4204485,9.4683736 39.6907351,9.28515383 39.9131488,9.04022989 C40.1344448,8.79492739 40.3032109,8.49189552 40.4203786,8.12980935 C40.539409,7.77056232 40.5977135,7.34790763 40.5977135,6.86373804 L40.5977135,0.267447863 C40.5977135,0.222589304 40.6085175,0.18473398 40.6308706,0.149717806 C40.6528512,0.116783674 40.6908515,0.0906635006 40.7450579,0.0713572854 C40.8001956,0.0520510703 40.872657,0.0346376213 40.9624421,0.0215775346 C41.0529723,0.00700323491 41.1673458,0 41.3036999,0 C41.4352108,0 41.5454863,0.00700323491 41.6352714,0.0215775346 C41.7259878,0.0346376213 41.7967728,0.0520510703 41.8487438,0.0713572854 C41.9016462,0.0906635006 41.939274,0.116783674 41.9644213,0.149717806 C41.9890097,0.18473398 42,0.222589304 42,0.267447863 L42,6.85522059 Z" id="Fill-5"></path>
                        <path d="M49,7.8439848 C49,8.34650367 48.9145545,8.79304001 48.746598,9.18340469 C48.577951,9.57414762 48.3444,9.90531456 48.0462902,10.1772837 C47.7471446,10.4503877 47.3951782,10.6557831 46.9907362,10.7934699 C46.5854311,10.9304001 46.1511263,11 45.6829886,11 C45.3558791,11 45.053799,10.9703066 44.7757128,10.9077045 C44.496073,10.8479393 44.2476769,10.7743677 44.0287983,10.6856657 C43.8104376,10.597531 43.6264277,10.5071268 43.4783222,10.4136965 C43.3302166,10.3198879 43.2280273,10.2406424 43.170891,10.1742577 C43.1116833,10.1080621 43.0687016,10.0231427 43.0417734,9.9225254 C43.013982,9.82020598 43,9.68346486 43,9.51286945 C43,9.3922044 43.0050059,9.29215454 43.0153629,9.21215247 C43.0248569,9.13215041 43.0402198,9.06708963 43.0605886,9.01753753 C43.080267,8.96798542 43.1058143,8.93375286 43.1349866,8.91427245 C43.1655399,8.8951703 43.2014442,8.88571379 43.2408009,8.88571379 C43.3108835,8.88571379 43.4108289,8.93318547 43.5387382,9.02585925 C43.6671653,9.12004608 43.8313243,9.22255463 44.0329411,9.33111535 C44.2336949,9.44251302 44.476222,9.5457781 44.7593141,9.63996492 C45.043442,9.73679957 45.371242,9.78559516 45.7428867,9.78559516 C46.0239075,9.78559516 46.282488,9.74568869 46.516039,9.66171489 C46.74959,9.57868675 46.950689,9.4618043 47.1198539,9.31125668 C47.2862568,9.15919602 47.416928,8.97347019 47.5073794,8.75389006 C47.5964498,8.53393167 47.6416755,8.28352332 47.6416755,8.00266502 C47.6416755,7.69892196 47.5790155,7.43962449 47.4549038,7.22590739 C47.328548,7.01086639 47.163526,6.82268187 46.9569032,6.66002992 C46.7502805,6.49794536 46.516039,6.34909991 46.2515895,6.21481749 C45.9886936,6.07977855 45.7178572,5.94133526 45.442015,5.80137893 C45.1651371,5.66198999 44.8958543,5.5059576 44.6352024,5.33479479 C44.3736874,5.16438851 44.1408268,4.96372139 43.9348946,4.73241519 C43.7282718,4.50110899 43.5610058,4.2291398 43.4325786,3.91896632 C43.3046693,3.60841457 43.2406283,3.23488248 43.2406283,2.8006396 C43.2406283,2.35353587 43.3150263,1.95674077 43.4639949,1.60722821 C43.6108921,1.25677 43.8171697,0.963996492 44.0814465,0.727205516 C44.3452056,0.49117106 44.6591962,0.309606093 45.023591,0.186482351 C45.3869501,0.0616564364 45.7812077,0 46.2025662,0 C46.4188555,0 46.6354901,0.0215608397 46.8552317,0.0614673063 C47.072902,0.103265075 47.2793521,0.159058476 47.4726833,0.227145338 C47.6663598,0.295988721 47.8381139,0.373532092 47.9896717,0.457505889 C48.1386404,0.542992727 48.2394488,0.612592631 48.286228,0.665549079 C48.3345608,0.717559877 48.3658045,0.758222864 48.3803044,0.788672822 C48.3965304,0.81912278 48.4089588,0.858272726 48.4184528,0.904042228 C48.4284646,0.951135641 48.4367502,1.0073073 48.4410656,1.07425938 C48.4460715,1.13988755 48.4496965,1.224807 48.4496965,1.32863947 C48.4496965,1.42868933 48.444518,1.51663486 48.437268,1.59361084 C48.430536,1.67115421 48.4182802,1.73678238 48.4029172,1.78879318 C48.3882448,1.83985832 48.3663224,1.87995392 48.3392215,1.90397345 C48.3116028,1.92780385 48.2801864,1.94142123 48.2453178,1.94142123 C48.1888719,1.94142123 48.1037717,1.90227128 47.9844932,1.82472791 C47.8669409,1.74794106 47.7231508,1.66245422 47.5515694,1.56467392 C47.3806784,1.46840666 47.1776806,1.38140678 46.9455105,1.3006482 C46.7110964,1.22159179 46.4482005,1.18055054 46.1569953,1.18055054 C45.8863316,1.18055054 45.6495008,1.22159179 45.4489197,1.3006482 C45.2481659,1.38140678 45.0815904,1.48788707 44.9517823,1.61800863 C44.820248,1.75096714 44.7234098,1.90775606 44.65747,2.08837537 C44.592566,2.27088599 44.5595961,2.46474442 44.5595961,2.66768109 C44.5595961,2.96442633 44.6224287,3.21975207 44.748094,3.4355496 C44.8737593,3.6505906 45.0406801,3.8404773 45.2488564,4.00502055 C45.4585863,4.16994206 45.6957622,4.32200272 45.9615927,4.45836557 C46.227941,4.59605234 46.4996404,4.73600867 46.7754826,4.87709977 C47.0521879,5.01686697 47.3221612,5.17138632 47.5895452,5.33838827 C47.8558934,5.50747064 48.092379,5.70416602 48.3027993,5.93301353 C48.5099399,6.16261756 48.678069,6.43137154 48.8058057,6.74324719 C48.9357864,7.05455546 49,7.4209006 49,7.8439848" id="Fill-7"></path>
                        <path d="M59,0.626493578 C59,0.733686857 58.994451,0.826676079 58.983538,0.904514307 C58.9717001,0.983867635 58.9546831,1.04844874 58.9297126,1.0957956 C58.9060369,1.1439 58.8738526,1.17893668 58.8387089,1.20147378 C58.8033803,1.22457904 58.7626876,1.23499535 58.7186655,1.23499535 L55.71092,1.23499535 L55.71092,10.7289866 C55.71092,10.7740608 55.7001919,10.8140216 55.677626,10.846975 C55.6561698,10.8812541 55.6171418,10.9085259 55.5622067,10.9284116 C55.5069016,10.9475397 55.4347645,10.9645846 55.3433909,10.9780311 C55.2516474,10.9926139 55.1373379,11 55.0006474,11 C54.8676562,11 54.7542716,10.9926139 54.6619731,10.9780311 C54.5670852,10.9645846 54.4936533,10.9475397 54.4389031,10.9284116 C54.3834131,10.9085259 54.345125,10.8812541 54.322559,10.846975 C54.3011029,10.8140216 54.28945,10.7740608 54.28945,10.7289866 L54.28945,1.23499535 L51.2817045,1.23499535 C51.2378673,1.23499535 51.1979145,1.22476843 51.161846,1.20147378 C51.1259624,1.17893668 51.0969226,1.1439 51.0750965,1.0957956 C51.0540103,1.04844874 51.0353287,0.983867635 51.0209013,0.904514307 C51.0075836,0.826676079 51,0.733686857 51,0.626493578 C51,0.519868462 51.0075836,0.423659654 51.0209013,0.343927551 C51.0353287,0.260975862 51.0540103,0.194122103 51.0750965,0.144313212 C51.0971076,0.0945043215 51.1259624,0.0568162253 51.161846,0.0337109604 C51.1979145,0.0121207947 51.2378673,0 51.2815195,0 L58.7186655,0 C58.7626876,0 58.8033803,0.0121207947 58.8387089,0.0337109604 C58.8738526,0.0568162253 58.9060369,0.0946937089 58.9297126,0.144313212 C58.9546831,0.194122103 58.9717001,0.260975862 58.983538,0.343927551 C58.994451,0.423849041 59,0.519868462 59,0.626493578" id="Fill-9"></path>
                        <path d="M65.6335816,3.32455703 C65.6335816,2.87916545 65.559393,2.50750168 65.4103414,2.20937666 C65.2626388,1.91011738 65.0788534,1.68628732 64.8598286,1.53996597 C64.6408037,1.39364463 64.4146972,1.30006703 64.1815091,1.26112362 C63.9468034,1.2225583 63.7186736,1.20195233 63.4976254,1.20195233 L62.2981312,1.20195233 L62.2981312,5.59234881 L63.4677814,5.59234881 C63.8599691,5.59234881 64.1858929,5.53582415 64.4445412,5.42296389 C64.7035268,5.30953649 64.92154,5.15489714 65.0970634,4.95413065 C65.2730926,4.75374224 65.4069692,4.51441044 65.4980188,4.23537904 C65.5878882,3.95634764 65.6335816,3.65236221 65.6335816,3.32455703 M67,3.20621445 C67,3.75387973 66.9195729,4.24728891 66.7575383,4.68795435 C66.5961782,5.12767457 66.3668681,5.50349734 66.0670788,5.81220891 C65.7681326,6.12337807 65.4008993,6.36327702 64.9652101,6.5320948 C64.5300267,6.7018578 64.011887,6.78560503 63.4067444,6.78560503 L62.2981312,6.78560503 L62.2981312,10.7281523 C62.2981312,10.7744685 62.2858227,10.8130338 62.2637347,10.8472511 C62.2409723,10.8809012 62.2062386,10.9081238 62.1583532,10.9272174 C62.1111423,10.9466891 62.0447098,10.9646485 61.9612477,10.979205 C61.8794717,10.9913039 61.7747646,11 61.6491499,11 C61.5237038,11 61.4186595,10.9911149 61.3368835,10.979205 C61.2519039,10.9646485 61.1854714,10.9466891 61.1357313,10.9272174 C61.0846424,10.9081238 61.0500773,10.8809012 61.0301813,10.8472511 C61.0096108,10.8130338 61,10.7744685 61,10.7281523 L61,0.626875419 C61,0.401343943 61.052775,0.240844175 61.1584937,0.144052795 C61.2642124,0.0480175984 61.3815653,0 61.5135872,0 L63.6031755,0 C63.8152873,0 64.0169453,0.00964132882 64.2113531,0.0304363518 C64.404412,0.0495299637 64.6342279,0.0918761923 64.8967543,0.1569079 C65.1614725,0.221561517 65.4310805,0.34349597 65.7055782,0.520631756 C65.97957,0.698145634 66.2117465,0.917060512 66.4029507,1.17624212 C66.5948293,1.43599086 66.7416889,1.73581728 66.8443726,2.07742279 C66.9477308,2.41883926 67,2.79466204 67,3.20621445" id="Fill-11"></path>
                        <path d="M70.6,10.7316658 C70.6,10.7763251 70.5878725,10.8162535 70.562781,10.8491803 C70.5376895,10.882107 70.4946158,10.9093568 70.4318871,10.9284694 C70.3702039,10.9487175 70.2888657,10.9651809 70.1853633,10.9797519 C70.0845792,10.993566 69.9545217,11 69.7997909,11 C69.6511239,11 69.5237846,10.993566 69.4186095,10.9797519 C69.3123889,10.9651809 69.2283325,10.9485283 69.1674856,10.9284694 C69.1055933,10.9093568 69.061265,10.882107 69.0363826,10.8491803 C69.0125457,10.8162535 69,10.7763251 69,10.7316658 L69,0.269848096 C69,0.224242633 69.0142185,0.184692666 69.0407737,0.151387431 C69.0690016,0.118460665 69.1150026,0.0912109274 69.1812859,0.0728552014 C69.2458965,0.0527963667 69.329953,0.0346298749 69.4315735,0.021572709 C69.5350758,0.00813707444 69.6571877,0 69.7997909,0 C69.9545217,0 70.0843701,0.00813707444 70.1853633,0.021572709 C70.2888657,0.0346298749 70.3702039,0.0527963667 70.4318871,0.0728552014 C70.4946158,0.0912109274 70.5378986,0.118460665 70.562781,0.151387431 C70.5878725,0.184692666 70.6,0.224053398 70.6,0.269848096 L70.6,10.7316658 Z" id="Fill-13"></path>
                        <path d="M80,10.366119 C80,10.4770907 79.9948038,10.5721823 79.9832123,10.64818 C79.9710213,10.7241776 79.9518353,10.7907229 79.9238558,10.8432785 C79.8978749,10.8965902 79.8656985,10.9370467 79.8267271,10.9606778 C79.7887549,10.9863885 79.7423889,11 79.6872294,11 L74.5705816,11 C74.433682,11 74.3053761,10.9561407 74.182666,10.8680439 C74.0609553,10.7807033 74,10.6266284 74,10.4067645 L74,0.27109614 C74,0.226291548 74.0103924,0.186213178 74.0349744,0.152751521 C74.0595563,0.119100815 74.1007261,0.0918777713 74.1592832,0.0727838312 C74.2200386,0.0527446465 74.3003797,0.0353521466 74.4021051,0.021551576 C74.5022317,0.00812910322 74.6247419,0 74.7692359,0 C74.9173273,0 75.0406369,0.00812910322 75.1393645,0.021551576 C75.2382919,0.0353521466 75.3162348,0.0527446465 75.3761908,0.0727838312 C75.435947,0.0918777713 75.4777163,0.119100815 75.501299,0.152751521 C75.5254813,0.186402227 75.5376724,0.226480597 75.5376724,0.27109614 L75.5376724,9.73885471 L79.6872294,9.73885471 C79.7423889,9.73885471 79.7887549,9.75152098 79.8267271,9.77742069 C79.8656985,9.80218609 79.8978749,9.83923968 79.9238558,9.88706905 C79.9518353,9.93508748 79.9712211,9.99804077 79.9832123,10.0780085 C79.9948038,10.1564638 80,10.2523116 80,10.366119" id="Fill-15"></path>
                        <path d="M88.584771,5.47612239 C88.584771,4.87008579 88.533373,4.30725631 88.4328971,3.78630741 C88.3311719,3.26706405 88.1625223,2.81566344 87.9273052,2.43248458 C87.692088,2.05044275 87.3769185,1.75064604 86.9837597,1.53593702 C86.5902439,1.32255453 86.1028554,1.21453675 85.523022,1.21453675 C84.943367,1.21453675 84.4563355,1.33051373 84.0626413,1.56133067 C83.669304,1.79309513 83.3498513,2.10009303 83.1039262,2.48573545 C82.8572873,2.87194639 82.6816776,3.32202047 82.5756692,3.83595769 C82.4691255,4.35160045 82.4164783,4.89244737 82.4164783,5.45906695 C82.4164783,6.08670709 82.4653778,6.66469696 82.5642475,7.1945526 C82.6624033,7.72118665 82.8285544,8.17732488 83.0607377,8.55936671 C83.2943486,8.94273507 83.6066627,9.24082624 83.9971446,9.45174517 C84.3878049,9.66399063 84.8785842,9.76992385 85.4703748,9.76992385 C86.0544914,9.76992385 86.5466984,9.65432588 86.945925,9.42256142 C87.343724,9.19117596 87.6653183,8.88000896 87.9085663,8.48583882 C88.151279,8.09147917 88.3252826,7.63590945 88.4284355,7.12007718 C88.5317668,6.60234986 88.584771,6.05373325 88.584771,5.47612239 M90,5.37720084 C90,6.23982703 89.9036288,7.0198291 89.7117787,7.71398546 C89.5199286,8.40719429 89.2333135,8.99731248 88.8519334,9.48528753 C88.4714456,9.97155704 87.9929804,10.3462082 87.4179655,10.6077249 C86.8427722,10.8696206 86.1701368,11 85.4039857,11 C84.6467579,11 83.9919691,10.8806119 83.4397977,10.6420253 C82.8881618,10.4013541 82.4307555,10.0538022 82.0704343,9.59576887 C81.71047,9.13963064 81.4417014,8.57225304 81.2657347,7.89496262 C81.0895895,7.21729318 81,6.43842814 81,5.5583675 C81,4.71601833 81.0972635,3.95117665 81.2883998,3.2611894 C81.4800714,2.57404472 81.7684711,1.98866416 82.1527067,1.50656376 C82.5362284,1.02408435 83.015586,0.653981325 83.5916716,0.392275092 C84.1675788,0.131516384 84.8377156,0 85.6052945,0 C86.3466389,0 86.9919691,0.118630052 87.5421773,0.355132137 C88.0909578,0.592392241 88.5485425,0.937859629 88.9147531,1.3913448 C89.2797145,1.84596699 89.5513385,2.40765944 89.7305175,3.07604314 C89.9093397,3.74480584 90,4.51173207 90,5.37720084" id="Fill-17"></path>
                        <path d="M98,0.626875419 C98,0.732362899 97.9944602,0.827074776 97.9828267,0.905150635 C97.9726704,0.985495042 97.9540198,1.0482582 97.9287215,1.09646485 C97.9043464,1.14372626 97.8744316,1.17888876 97.8387923,1.20195233 C97.8025991,1.22444876 97.7634513,1.23541341 97.7195023,1.23541341 L94.7119544,1.23541341 L94.7119544,10.7281523 C94.7119544,10.7744685 94.7001362,10.8130338 94.6764998,10.8472511 C94.6556333,10.8809012 94.6172241,10.9081238 94.5620109,10.9272174 C94.5066131,10.9466891 94.434042,10.9646485 94.3424509,10.979205 C94.2528911,10.9913039 94.1378483,11 93.9993537,11 C93.8684302,11 93.754126,10.9911149 93.6612423,10.979205 C93.56762,10.9646485 93.4924636,10.9466891 93.4381737,10.9272174 C93.3831452,10.9081238 93.3443667,10.8809012 93.3227616,10.8472511 C93.3006025,10.8130338 93.2895229,10.7744685 93.2895229,10.7281523 L93.2895229,1.23522436 L90.2795744,1.23522436 C90.2372874,1.23522436 90.1975856,1.22425971 90.161577,1.20176328 C90.1255684,1.17851066 90.0960229,1.14334817 90.0736791,1.0962758 C90.0531819,1.0482582 90.034162,0.985305996 90.0203125,0.904961589 C90.0060938,0.82688573 90,0.732173853 90,0.626686373 C90,0.518930345 90.0062784,0.424407514 90.0203125,0.343117879 C90.034162,0.260315878 90.0531819,0.194338942 90.0736791,0.14386375 C90.0960229,0.0941447402 90.1255684,0.0565246533 90.161577,0.0334610824 C90.1975856,0.0120989224 90.2372874,0 90.2795744,0 L97.7193177,0 C97.7632666,0 97.8024144,0.0120989224 97.8386077,0.033650128 C97.8742469,0.0567136989 97.9041618,0.0945228316 97.9285368,0.144052795 C97.9538351,0.194338942 97.9723011,0.260504924 97.982642,0.343306924 C97.9944602,0.424596559 98,0.518930345 98,0.626875419" id="Fill-19"></path>
                        <path d="M0,0 L0,4.48924261 C0,4.48924261 3.68036569,6.10722407 5.54848318,9 C5.54848318,9 6.37269722,2.61150953 11,0 L0,0 Z" id="Fill-21"></path>
                        <path d="M6.2721325,10.9998192 L11,10.9998192 L11,5 C8.32433456,5.69202254 6.2721325,10.9998192 6.2721325,10.9998192 M0,8.94526988 L0,11 L4.94490548,11 C4.94490548,10.9998192 3.06106883,9.08450619 0,8.94526988" id="Fill-23"></path>
                    </g>
                </g>
                <polygon id="Fill-3" fill="#FFFFFF" points="9.5 3 11.0344687 7.9654265 16 7.9654265 11.9827656 11.0342954 13.5172344 16 9.5 12.9311311 5.48276564 16 7.01723436 11.0342954 3 7.9654265 7.96553127 7.9654265"></polygon>
                <polygon id="Fill-7" fill="#FFFFFF" points="29.5 3 31.0344687 7.9654265 36 7.9654265 31.9827656 11.0342954 33.5172344 16 29.5 12.9311311 25.4827656 16 27.0172344 11.0342954 23 7.9654265 27.9655313 7.9654265"></polygon>
                <polygon id="Fill-11" fill="#FFFFFF" points="49.5 3 51.0344687 7.9654265 56 7.9654265 51.9827656 11.0342954 53.5172344 16 49.5 12.9311311 45.4827656 16 47.0172344 11.0342954 43 7.9654265 47.9652668 7.9654265"></polygon>
                <polygon id="Fill-15" fill="#FFFFFF" points="70.4998677 3 72.0345698 7.9654265 77 7.9654265 72.9825829 11.0342954 74.5172849 16 70.4998677 12.9311311 66.4827151 16 68.0171526 11.0342954 64 7.9654265 68.9654302 7.9654265"></polygon>
                <polygon id="Fill-19" fill="#FFFFFF" points="90.5 3 92.0344687 7.9654265 97 7.9654265 92.9827656 11.0342954 94.5172344 16 90.5 12.9311311 86.4827656 16 88.0172344 11.0342954 84 7.9654265 88.9655313 7.9654265"></polygon>
            </g>
        </g>
    </g>
</svg>