<?xml version="1.0" encoding="UTF-8"?>
<svg width="893px" height="560px" viewBox="0 0 893 560" version="1.1" xmlns="http://www.w3.org/2000/svg" xmlns:xlink="http://www.w3.org/1999/xlink">
    <!-- Generator: Sketch 49.3 (51167) - http://www.bohemiancoding.com/sketch -->
    <title>Group 6</title>
    <desc>Created with Sketch.</desc>
    <defs></defs>
    <g id="SignUp-flow" stroke="none" stroke-width="1" fill="none" fill-rule="evenodd" opacity="0.8">
        <g id="Group-6">
            <path d="M424.666992,422.90332 L424.666992,482 L415.204102,482 L415.204102,346.365234 L447.489258,346.365234 C464.312259,346.365234 476.743775,349.473113 484.78418,355.688965 C492.824584,361.904816 496.844727,371.259378 496.844727,383.75293 C496.844727,392.844772 494.448103,400.513966 489.654785,406.760742 C484.861467,413.007518 477.578825,417.491523 467.806641,420.212891 L504.637695,482 L493.319336,482 L458.34375,422.90332 L424.666992,422.90332 Z M424.666992,414.739258 L450.550781,414.739258 C461.992896,414.739258 470.868133,412.188014 477.176758,407.085449 C483.485383,401.982885 486.639648,394.452849 486.639648,384.495117 C486.639648,374.16629 483.547231,366.651716 477.362305,361.951172 C471.177378,357.250628 461.096099,354.900391 447.118164,354.900391 L424.666992,354.900391 L424.666992,414.739258 Z M580.720508,482 L578.401172,466.042969 L577.658984,466.042969 C572.587344,472.537142 567.376622,477.129381 562.02666,479.819824 C556.676698,482.510267 550.352706,483.855469 543.054492,483.855469 C533.158609,483.855469 525.458491,481.319687 519.953906,476.248047 C514.449321,471.176407 511.69707,464.15662 511.69707,455.188477 C511.69707,445.354443 515.794523,437.716173 523.989551,432.273438 C532.184579,426.830702 544.043998,423.954754 559.568164,423.645508 L578.772265,423.088867 L578.772265,416.40918 C578.772265,406.822543 576.824043,399.586287 572.927539,394.700195 C569.031035,389.814103 562.753429,387.371094 554.094531,387.371094 C544.755292,387.371094 535.076026,389.968724 525.056445,395.164062 L521.623828,387.185547 C532.694847,381.990208 543.642003,379.392578 554.465625,379.392578 C565.536644,379.392578 573.808859,382.268526 579.282519,388.020508 C584.75618,393.77249 587.492969,402.740499 587.492969,414.924805 L587.492969,482 L580.720508,482 Z M543.611133,475.505859 C554.372905,475.505859 562.86159,472.428904 569.077441,466.274902 C575.293293,460.1209 578.401172,451.570367 578.401172,440.623047 L578.401172,430.696289 L560.774219,431.438477 C546.610736,432.118819 536.513995,434.329897 530.483691,438.071777 C524.453388,441.813658 521.438281,447.642864 521.438281,455.55957 C521.438281,461.868196 523.371042,466.769677 527.236621,470.26416 C531.1022,473.758644 536.560316,475.505859 543.611133,475.505859 Z M640.475195,475.691406 C646.289026,475.691406 651.36059,475.19662 655.690039,474.207031 L655.690039,481.628906 C651.236891,483.113289 646.103479,483.855469 640.289648,483.855469 C631.383354,483.855469 624.811967,481.474308 620.575293,476.711914 C616.338618,471.94952 614.220312,464.465871 614.220312,454.260742 L614.220312,389.133789 L599.283789,389.133789 L599.283789,383.75293 L614.220312,379.578125 L618.858984,356.755859 L623.590429,356.755859 L623.590429,381.155273 L653.185156,381.155273 L653.185156,389.133789 L623.590429,389.133789 L623.590429,452.961914 C623.590429,460.693073 624.951093,466.414044 627.672461,470.125 C630.393828,473.835956 634.661364,475.691406 640.475195,475.691406 Z M680.376367,482 L671.191796,482 L671.191796,381.155273 L680.376367,381.155273 L680.376367,482 Z M669.892968,353.137695 C669.892968,347.200166 671.841191,344.231445 675.737695,344.231445 C677.655022,344.231445 679.154844,345.00455 680.237206,346.550781 C681.319569,348.097013 681.860742,350.292629 681.860742,353.137695 C681.860742,355.920912 681.319569,358.116528 680.237206,359.724609 C679.154844,361.33269 677.655022,362.136719 675.737695,362.136719 C671.841191,362.136719 669.892968,359.137074 669.892968,353.137695 Z M778.168163,482 L778.168163,416.594727 C778.168163,406.451447 776.034396,399.076032 771.766796,394.468262 C767.499197,389.860491 760.881424,387.556641 751.91328,387.556641 C739.852673,387.556641 731.023823,390.602671 725.426464,396.694824 C719.829105,402.786977 717.030468,412.667249 717.030468,426.335938 L717.030468,482 L707.845898,482 L707.845898,381.155273 L715.638866,381.155273 L717.401562,394.978516 L717.958202,394.978516 C724.514225,384.46414 736.172637,379.207031 752.933788,379.207031 C775.818017,379.207031 787.25996,391.483927 787.25996,416.038086 L787.25996,482 L778.168163,482 Z M892.288085,381.155273 L892.288085,387.556641 L871.414062,388.855469 C876.980496,395.782587 879.763671,403.389933 879.763671,411.677734 C879.763671,421.388069 876.532095,429.258271 870.068847,435.288574 C863.605598,441.318878 854.931369,444.333984 844.045897,444.333984 C839.469052,444.333984 836.252938,444.148439 834.39746,443.777344 C830.748353,445.694671 827.965178,447.952135 826.047851,450.549805 C824.130523,453.147474 823.171874,455.899725 823.171874,458.806641 C823.171874,462.022803 824.393379,464.373039 826.836425,465.857422 C829.279471,467.341804 833.376923,468.083984 839.128905,468.083984 L856.755858,468.083984 C867.703179,468.083984 876.083629,470.295063 881.89746,474.717285 C887.711291,479.139508 890.618163,485.67997 890.618163,494.338867 C890.618163,504.976941 886.304241,513.187308 877.676269,518.970215 C869.048296,524.753121 856.755938,527.644531 840.798827,527.644531 C828.119727,527.644531 818.301303,525.201522 811.343261,520.31543 C804.385218,515.429338 800.906249,508.62602 800.906249,499.905273 C800.906249,492.978155 803.055479,487.22626 807.354003,482.649414 C811.652527,478.072568 817.481733,474.949227 824.841796,473.279297 C821.811182,471.980462 819.383634,470.140474 817.559081,467.759277 C815.734528,465.378081 814.822265,462.641292 814.822265,459.548828 C814.822265,452.807258 819.120724,446.869817 827.717772,441.736328 C821.842092,439.324207 817.265315,435.535996 813.987304,430.371582 C810.709293,425.207168 809.070312,419.28519 809.070312,412.605469 C809.070312,402.524038 812.270963,394.437368 818.672362,388.345215 C825.073762,382.253062 833.717067,379.207031 844.602538,379.207031 C851.22041,379.207031 856.353822,379.856439 860.002929,381.155273 L892.288085,381.155273 Z M810.64746,499.070312 C810.64746,512.924548 820.945209,519.851562 841.541015,519.851562 C868.012501,519.851562 881.248046,511.409264 881.248046,494.524414 C881.248046,488.463186 879.176127,484.071954 875.032226,481.350586 C870.888325,478.629218 864.17778,477.268555 854.90039,477.268555 L838.386718,477.268555 C819.893787,477.268555 810.64746,484.535735 810.64746,499.070312 Z M818.347655,412.605469 C818.347655,420.398476 820.713354,426.444152 825.444823,430.742676 C830.176292,435.0412 836.500285,437.19043 844.416991,437.19043 C852.828492,437.19043 859.276181,435.056662 863.760253,430.789062 C868.244325,426.521463 870.486327,420.336629 870.486327,412.234375 C870.486327,403.637327 868.182477,397.189637 863.574706,392.891113 C858.966936,388.592589 852.519246,386.443359 844.231444,386.443359 C836.19104,386.443359 829.867047,388.74721 825.259276,393.35498 C820.651506,397.962751 818.347655,404.379516 818.347655,412.605469 Z" id="Rating" fill="#ABB4C2"></path>
            <path d="M582.146484,285 L570.193359,239.511719 L491.335938,239.511719 L479.050781,285 L407,285 L486.189453,41.2890625 L573.679688,41.2890625 L653.865234,285 L582.146484,285 Z M556.580078,185.722656 L546.121094,145.878906 C543.686186,137.024695 540.725603,125.569732 537.239258,111.513672 C533.752912,97.457612 531.456386,87.3860981 530.349609,81.2988281 C529.353511,86.9433876 527.389012,96.2401696 524.456055,109.189453 C521.523097,122.138737 515.020884,147.649549 504.949219,185.722656 L556.580078,185.722656 Z" id="A" fill="#ABB4C2"></path>
            <polygon id="Fill-33" fill="#ABB4C2" points="720.561565 185.926645 658 185.926645 658 143.073355 720.561565 143.073355 720.561565 81 762.271416 81 762.271416 143.073355 825 143.073355 825 185.926645 762.271416 185.926645 762.271416 248 720.561565 248"></polygon>
            <path d="M104.041408,162.235102 L81.174828,193.721038 C69.7110491,209.507049 73.2585076,237.476015 88.9135962,248.778383 L131.305546,279.385525 C138.581602,284.636768 139.153715,289.841381 135.703103,295.392131 L141.860042,299.965448 L163.318759,270.238893 C176.581375,251.86851 175.424595,226.869509 155.755749,212.543372 L113.012282,181.408954 C107.891961,177.678563 107.364685,172.472156 110.198347,166.632659 L104.041408,162.235102 Z M140.72299,23.0251538 L105.12645,72.2573498 C88.4311562,95.3463189 94.5020091,134.773684 117.309405,151.512021 L175.829917,194.465323 C187.693637,203.172558 189.24139,225.343277 180.607687,236.715589 L185.56839,240.437013 L225.93732,183.640015 C244.063793,158.138845 243.011033,120.454721 214.548866,99.7869191 L151.950033,54.3335377 C143.187201,47.9703512 138.814752,37.1575972 146.110536,26.8326636 L140.72299,23.0251538 Z M46.9108266,331.770619 L94.085927,331.770619 L102.491861,360.370882 C128.188517,360.370882 153.885173,360.370882 179.581829,360.370882 L187.989557,331.770619 L235.164658,331.770619 L228.980817,310.735159 C170.352698,310.735159 111.722786,310.735159 53.0946673,310.735159 L46.9108266,331.770619 Z M50.4744262,462.310995 L22.2113328,462.310995 L22.2113328,438.644532 L50.4744262,438.644532 C71.2623896,438.644532 69.9962088,462.310995 50.4744262,462.310995 Z M147.32112,462.310995 L119.058026,462.310995 L119.058026,438.644532 L147.32112,438.644532 C168.109083,438.644532 166.842902,462.310995 147.32112,462.310995 Z M244.167813,462.310995 L215.90472,462.310995 L215.90472,438.644532 L244.167813,438.644532 C264.955777,438.644532 263.689596,462.310995 244.167813,462.310995 Z M48.5500465,420.13964 L22.2113328,420.13964 L22.2113328,398.013757 L47.5546777,398.013757 C63.3891121,398.013757 63.961225,420.13964 48.5500465,420.13964 Z M145.39674,420.13964 L119.058026,420.13964 L119.058026,398.013757 L144.401371,398.013757 C160.235806,398.013757 160.807918,420.13964 145.39674,420.13964 Z M242.243433,420.13964 L215.90472,420.13964 L215.90472,398.013757 L241.248065,398.013757 C257.082499,398.013757 257.654612,420.13964 242.243433,420.13964 Z M87.4662762,449.13267 C85.4540171,435.532884 79.9750051,432.275965 69.0133942,427.440805 C77.3027538,422.59309 82.394379,415.46051 82.394379,405.687961 C82.394379,386.146451 66.3877727,378.188881 48.9248791,378.188881 L0.146427842,378.188881 L0.146427842,481.908102 L48.469341,481.908102 C69.1084474,481.908102 90.9778656,472.885219 87.4662762,449.13267 Z M184.31297,449.13267 C182.300711,435.532884 176.821699,432.275965 165.860088,427.440805 C174.149447,422.59309 179.241072,415.46051 179.241072,405.687961 C179.241072,386.146451 163.234466,378.188881 145.771573,378.188881 L96.9931213,378.188881 L96.9931213,481.908102 L145.316034,481.908102 C165.955141,481.908102 187.824559,472.885219 184.31297,449.13267 Z M281.159663,449.13267 C279.147404,435.532884 273.668392,432.275965 262.706781,427.440805 C270.996141,422.59309 276.087766,415.46051 276.087766,405.687961 C276.087766,386.146451 260.08116,378.188881 242.618266,378.188881 L193.839815,378.188881 L193.839815,481.908102 L242.162728,481.908102 C262.801834,481.908102 284.671252,472.885219 281.159663,449.13267 Z M290.525097,478.505914 C290.525097,478.070104 290.467706,477.686304 290.352925,477.350927 C290.239937,477.017344 290.048037,476.710663 289.777225,476.432677 C289.508207,476.152898 289.151309,475.896434 288.702944,475.663284 C288.256374,475.428341 287.700402,475.195192 287.036823,474.960249 C286.428841,474.748621 285.939227,474.553134 285.566188,474.375582 C285.194942,474.198029 284.904402,474.01689 284.698154,473.832164 C284.491907,473.647438 284.355604,473.459125 284.285659,473.263638 C284.217508,473.068151 284.183432,472.84935 284.183432,472.603646 C284.183432,472.368703 284.226475,472.148108 284.310768,471.943654 C284.398647,471.737406 284.53495,471.556267 284.725056,471.400236 C284.913369,471.244205 285.157279,471.118663 285.454993,471.02361 C285.752707,470.928557 286.107812,470.881927 286.520307,470.881927 C287.128289,470.881927 287.651978,470.973393 288.093169,471.156326 C288.534359,471.341052 288.971963,471.611864 289.407773,471.968762 L290.268633,470.948285 C289.762878,470.559105 289.228427,470.252423 288.659901,470.028241 C288.093169,469.805853 287.408068,469.694658 286.606393,469.694658 C286.045041,469.694658 285.532112,469.761016 285.067607,469.895525 C284.603101,470.028241 284.20854,470.225522 283.882131,470.487366 C283.555722,470.751005 283.301051,471.06486 283.116325,471.432518 C282.933392,471.800177 282.841926,472.218053 282.841926,472.686145 C282.841926,473.109401 282.902904,473.484233 283.023065,473.807056 C283.143227,474.129878 283.33692,474.422212 283.605939,474.684056 C283.876751,474.945901 284.231855,475.191605 284.673046,475.421167 C285.114236,475.648936 285.661241,475.874912 286.314059,476.097301 C286.864651,476.287407 287.321982,476.473927 287.689641,476.658653 C288.055506,476.841586 288.351427,477.028105 288.573816,477.218212 C288.797998,477.406525 288.955822,477.612772 289.047288,477.836954 C289.138755,478.059343 289.185384,478.305047 289.185384,478.572272 C289.185384,479.196395 288.952235,479.686009 288.489523,480.042907 C288.025018,480.399805 287.391927,480.57915 286.590252,480.57915 C285.971509,480.57915 285.397603,480.450022 284.870326,480.193557 C284.34305,479.937093 283.849849,479.598129 283.392517,479.17308 L282.497582,480.14334 C282.980022,480.611433 283.566483,480.998819 284.260551,481.305501 C284.952825,481.612182 285.713251,481.764626 286.538242,481.764626 C287.167745,481.764626 287.729097,481.682127 288.222298,481.513542 C288.715499,481.34675 289.133374,481.118981 289.477718,480.828441 C289.820268,480.539694 290.082113,480.193557 290.259665,479.791823 C290.437218,479.391882 290.525097,478.961452 290.525097,478.505914 Z M303.005766,481.581693 L303.005766,469.877591 L301.544099,469.877591 L298.674567,476.882835 C298.604622,477.05142 298.527503,477.239733 298.441418,477.451361 C298.355332,477.662989 298.272833,477.874617 298.192127,478.088038 C298.113215,478.299666 298.03789,478.500533 297.969738,478.688847 C297.899793,478.878953 297.847783,479.034984 297.813707,479.156939 C297.779632,479.034984 297.729415,478.880746 297.65947,478.697814 C297.591319,478.513088 297.515994,478.315807 297.437081,478.104179 C297.356376,477.892551 297.273877,477.680924 297.187791,477.469296 C297.101705,477.255874 297.024586,477.062181 296.954641,476.882835 L294.119185,469.877591 L292.623442,469.877591 L292.623442,481.581693 L293.912938,481.581693 L293.912938,472.402779 C293.947014,472.513973 293.990057,472.650276 294.042067,472.811687 C294.092284,472.974892 294.149674,473.141683 294.214239,473.313855 C294.27701,473.486027 294.341574,473.665373 294.411519,473.848305 C294.47967,474.033031 294.547822,474.198029 294.617767,474.341506 L297.779632,481.882994 L300.993507,474.341506 C301.063452,474.185475 301.131603,474.018684 301.201548,473.841131 C301.2697,473.661786 301.337851,473.486027 301.407796,473.313855 C301.475947,473.141683 301.536925,472.974892 301.587142,472.811687 C301.639152,472.650276 301.682195,472.513973 301.716271,472.402779 L301.716271,481.581693 L303.005766,481.581693 Z" id="Better_Business_Bureau" fill="#ABB4C2"></path>
            <path d="M344,0 L344,560" id="Path-6" stroke="#ABB4C2" stroke-width="5"></path>
        </g>
    </g>
</svg>
